<?xml version="1.0" encoding="utf-8"?>
<!-- Generator: Adobe Illustrator 23.0.1, SVG Export Plug-In . SVG Version: 6.00 Build 0)  -->
<svg version="1.1" id="Capa_1" xmlns="http://www.w3.org/2000/svg" xmlns:xlink="http://www.w3.org/1999/xlink" x="0px" y="0px"
	 viewBox="0 0 302.8 302.8" style="enable-background:new 0 0 302.8 302.8;" xml:space="preserve">
<style type="text/css">
	.st0{fill-rule:evenodd;clip-rule:evenodd;fill:#FF9E45;}
	.st1{fill-rule:evenodd;clip-rule:evenodd;fill:#173B54;}
</style>
<title>logo copy 2</title>
<desc>Created with Sketch.</desc>
<g id="Page-1">
	<g id="Group-Copy" transform="translate(0.000000, -13566.000000)">
		<g id="logo-copy-2" transform="translate(0.000000, 13566.000000)">
			<circle id="Oval" class="st0" cx="151.4" cy="151.4" r="151.4"/>
			<path id="Path" class="st1" d="M237.1,133.5l-7.2,7.2c-3,0.6-4.5,1.2-4.5,1.8c0,0.9-13.5,8.1-13.5,8.1s1.9,9.9,0,16.2
				s-9,10.8-8.1,10.8s-23.4,21.6-24.3,20.7c-0.9-0.9-13.5,9-13.5,8.1c0-0.6-0.3-0.3-0.9,0.9l1.8,2.7l21.6-9.9h1.8v-0.9h8.1
				c4.2,1.8,6.3,2.4,6.3,1.8c0-0.6,0.3-0.3,0.9,0.9v0.9h-0.9v1.8H202l-2.7-1.8l-2.7-0.9l-0.9-0.9h-1.8l0.9,1.8l0.2,2.3l1.6,3.1h-2.7
				l-3.6-6.3c-4.2,2.4-6,3.6-5.4,3.6s3.9,1.6,9.8,4.7l-3.4,0.3l-4.6-1.4l2.7,3.6c0.7,1,0.1,0.9-1.8-0.3c-1.9-1.2-3.7-2.6-5.4-4.2
				c2.5,3.8,3.8,5.9,3.9,6.3c0.2,0.4-0.4,0.3-1.6-0.4l-5.1-6l-17.1,8.1c-4.8,0.9-7.8,1.2-9,0.9s-2.1-1.5-2.7-3.6
				c-10.2,3-15,4.5-14.4,4.5s-0.9,2.1-4.5,6.3c-15,19.8-22.2,30.3-21.6,31.5c0.6,1.2-6.3,3.9-20.7,8.1c7.7-8.4,10.4-12.3,8.1-11.7
				s-8.6,5.4-18.9,14.4c-1.8-6,0.9-10.8,8.1-14.4c10.8-5.4,0.9-4.5,30.6-27.9c19.8-15.6,13.2-11.7-19.8,11.7l-10.8,8.1
				c2.4-5.4,6-9.6,10.8-12.6s14.1-11.1,27.9-24.3c-4,3.9-4,2.1,0-5.4c4.6-8.6,10.1-19.2,12.9-22.2c0.9-0.9-13.8-1.2-15.6,0.6
				c-1.2,1.2-5.4,0.3-12.6-2.7h-3.6c-2.2,0.6-4,0.6-5.4,0s-2.6-1.8-3.6-3.6l-3.6-2.7l-4.5-4.5l-6.3-2.7l-4.5-9.9
				c-3.4-1.2-5.5-2.4-6.3-3.6c-0.8-1.2-0.8-3,0-5.4c-3.2-1.2-5.3-2.7-6.3-4.5s-1-4.2,0-7.2l-5.4-5.4v-5.4c-3.6-4.2-3.6-7.2,0-9
				c5.4-2.7-3.6,1.8-8.1-8.1s8.1,9.9,2.7-16.2c-3.6-17.4,0.9-17.4,13.5,0l-8.1-18.9c-2-9-1.1-11.4,2.9-7.2s8.1,12,12.4,23.4
				C74,72.1,74,65.5,76.1,67c3.2,2.2,8.1,27.9,10.8,27c2.7-0.9,20.7,28.8,45,39.6s0.9-9.9,4.5-8.1s-3.6-18.9,0-19.8
				c2.4-0.6,2.4-4.5,0-11.7l3.6-4.5c1.1-6,2.6-8.7,4.5-8.1c2.7,0.9,0-10.8,3.6-14.4c2.4-2.4,4.2-2.4,5.4,0
				c-0.6-9.6,0.3-14.4,2.7-14.4s6,3.3,10.8,9.9c-3.6-12-3.9-18.3-0.9-18.9s6,5.7,9,18.9c1.2-15.6,2.7-23.4,4.5-23.4
				c2.7,0,1.8,25.2,7.2,19.8s4.5-19.8,15.3-22.5s-12.6,26.1-10.8,37.8s-6.3,57.6-3.6,63.8c1.8,4.2,3,2.7,3.6-4.5l4.5-17.1
				c4.2-6.6,8.4-10.2,12.6-10.8c4.2-0.6,7.5-6,9.9-16.2l2.7,4.5l-2.7,5.4h7.2L221,102l16.2,3.6H230c4.8,1.2,7.2,2.7,7.2,4.5
				c0,2.7,0.9,6.3,2.7,6.3s13.5,8.1,10.8,9c-1.8,0.6-6.3,0.6-13.5,0l9.9,4.5L237.1,133.5z"/>
		</g>
	</g>
</g>
</svg>
