<?xml version="1.0" encoding="utf-8"?>
<!-- Generator: Adobe Illustrator 23.0.1, SVG Export Plug-In . SVG Version: 6.00 Build 0)  -->
<svg version="1.1" id="Capa_1" xmlns="http://www.w3.org/2000/svg" xmlns:xlink="http://www.w3.org/1999/xlink" x="0px" y="0px"
	 viewBox="0 0 302.8 302.8" style="enable-background:new 0 0 302.8 302.8;" xml:space="preserve">
<style type="text/css">
	.st0{fill-rule:evenodd;clip-rule:evenodd;fill:#FF9E45;}
	.st1{fill:#003854;}
</style>
<title>logo copy 2</title>
<desc>Created with Sketch.</desc>
<g id="Page-1">
	<g id="Group-Copy" transform="translate(0.000000, -13566.000000)">
		<g id="logo-copy-2" transform="translate(0.000000, 13566.000000)">
			<circle id="Oval" class="st0" cx="151.4" cy="151.4" r="151.4"/>
		</g>
	</g>
</g>
<path class="st1" d="M191.9,131.7c0,0-5.8-62.9,13-97.8c0,0-10.4,1.9-16.5,23c0,0-6.9-11.9-6.5-23c0,0-5.4,7.7-5,19.9
	c0,0-6.1-15-8.8-14.6c-2.7,0.4-2.3,15.3-2.3,15.3s-13-19.6-9.2,9.2c0,0-13-3.1-8.1,14.6c0,0-6.5-3.1-5.4,10c0,0-6.1-3.1-3.1,10
	c0,0-7.7,2.3-0.8,12.3c0,0-8.1,2.3,0.4,11.1c0,0-7.7-1.9-6.5,7.3c0,0-47.9-26.8-57.5-65.9c0,0,0.4,6.1,1.9,15c0,0-9.6-11.5-13-21.1
	c0,0,2.3,12.3,5.8,19.6c0,0-7.7-8.1-8.8-10.4c0,0-1.5,5-0.4,6.9c0,0-11.1-6.1,0.8,16.1c0,0-13-7.7-2.7,9.2c0,0-16.5,0,1.5,12.3
	c0,0-10,1.5,1.9,10.7c0,0-5.8,6.1,5.4,10.7c0,0-4.6,7.7,5.8,9.2c0,0-3.5,8.8,5,8.1c0,0,5.4,15.7,12.3,12.7c0,0,10,15.7,16.9,7.3
	c0,0-1.2,13.8,15,3.5c0,0-6.1,6.9,17.3,4.6c0,0-12.7,21.1-12.7,26.5c0,0-14.2,15-19.6,16.9c-5.4,1.9-18.8,21.1-18.8,21.1
	s13-11.1,16.5-9.2c0,0-26.5,22.6-26.5,32.2c0,0,11.5-7.7,19.2-14.6c0,0-3.1,9.6-8.4,13c0,0,19.2,4.6,47.5-46.4
	c0,0,12.3-2.7,15.3-6.1c0,0,3.1,12.3,28.8-3.5c0,0,8.1,11.1,11.5,2.7c0,0,5,1.2,3.5-4.6c0,0,5.8,2.3,3.5-3.8c0,0,10.7,4.2,7.3-1.5
	c-3.5-5.8-18.8-1.2-26.8,2.3c-8.1,3.5-11.5,5-12.3,1.9c0,0,38.3-21.9,44.1-33.7c5.8-11.9,3.1-21.9,3.1-21.9s24.9-12.7,24.5-18.8
	c0,0,9.6,0.4,11.9-3.5l-9.2-2.3l10-1.2c0,0-1.9-6.1-11.5-9.2c0,0-3.6-14.1-19.9-16.9c0,0,2.6-4.6,1.8-9.2c0,0-8.2,13.8-12.5,15.1
	c-4.3,1.3-15.3,14.1-16.1,29.1L191.9,131.7z"/>
</svg>
